<?xml version="1.0" encoding="UTF-8"?>
<svg id="Camada_1" data-name="Camada 1" xmlns="http://www.w3.org/2000/svg" viewBox="0 0 339.42 398.41">
  <defs>
    <style>
      .cls-1 {
        fill: #fff;
      }

      .cls-1, .cls-2 {
        stroke-width: 0px;
      }

      .cls-2 {
        fill: #d3d3d3;
      }
    </style>
  </defs>
  <path class="cls-1" d="M112.7,226.19c2.92.72,5.97.6,8.88.61l60.26.11.02,13.14-35.61.23.02,10.1,35.67.9v12.37s-35.34.48-35.34.48l.17,9.82c6.03,1.58,13.15.9,19.31.93l15.81.06.05,12.87c-4.28,1.06-17.2-.24-23,.3-4.79.44-6.14,6.63-2.3,9.45l.3.21c2.07,1.55,6.73,1.15,9.3,1.16h11.29c1.43,0,3.15-.21,4.52.12v11.99s-35.97.38-35.97.38l-.06,10.28c6.12.99,12.54.71,18.73.73h17.18s0,5.45,0,5.45v7.62s-15.03.05-15.03.05c-3.33.01-8.62-.67-11.62.92-1.55,1.65-1.48,6.62.09,8.17,2.77,2.73,22.29,1.82,26.52,1.82l-.04,12.21-36.84.99-.33,9.95,37.51.27c-3.51,16.15-13.83,26.17-30.69,28.34l-3.93.24c-17.04.07-31.07-11.67-34.26-28.32-1.09-5.69-.63-11.94-.63-17.73l.02-126.17Z"/>
  <path class="cls-1" d="M176.71,14.82c48.32.28,87.48,38.33,87.8,86.44.08,11.48-2.63,22.07-5.87,33.05,8.83.34,18.05,6,24.15,12.03,24.55,24.27,10.51,64.04-23.2,70.47-4.26.81-9.2.34-13.54.33l-121.66-.05-80.84.07c-3.31.02-6.97.37-10.2-.31-46.63-9.82-43.21-76.61,3.16-81.78,3.2-.36,2.27-.37,2.58-3.65,2.06-21.88,20.14-39.98,42.21-41.88,13.91-1.2,10.08,3.91,12.8-8.01,8.66-37.93,43.88-66.33,82.61-66.71Z"/>
  <path class="cls-2" d="M220.94,0c48.32.28,87.48,38.33,87.8,86.44.08,11.48-2.63,22.07-5.87,33.05,8.83.34,18.05,6,24.15,12.03,24.55,24.27,10.51,64.04-23.2,70.47-4.26.81-9.2.34-13.54.33l-121.66-.05-80.84.07c-3.31.02-6.97.37-10.2-.31-46.63-9.82-43.21-76.61,3.16-81.78,3.2-.36,2.27-.37,2.58-3.65,2.06-21.88,20.14-39.98,42.21-41.88,13.91-1.2,10.08,3.91,12.8-8.01C146.98,28.78,182.2.38,220.94,0Z"/>
</svg>