<?xml version="1.0" encoding="UTF-8"?>
<svg id="Camada_1" data-name="Camada 1" xmlns="http://www.w3.org/2000/svg" viewBox="0 0 183.33 332.95">
  <defs>
    <style>
      .cls-1 {
        fill: #fff;
        stroke-width: 0px;
      }
    </style>
  </defs>
  <path class="cls-1" d="M.29,0c7.69,1.39,15.74,1.16,23.4,1.18l158.73.21.07,25.39-93.79.44.05,19.52,93.96,1.73.03,23.92-93.11.93.45,18.97c15.88,3.05,34.63,1.74,50.86,1.79l41.65.11.12,24.88c-11.28,2.05-45.29-.46-60.58.58-12.6.86-16.18,12.82-6.05,18.27l.78.41c5.46,2.99,17.73,2.23,24.5,2.24h29.73c3.76,0,8.3-.42,11.89.23l-.03,23.17-94.72.73-.17,19.87c16.13,1.91,33.03,1.37,49.33,1.41l45.24.02.02,10.52.03,14.73-39.62.1c-8.77.02-22.72-1.3-30.6,1.78-4.08,3.18-3.89,12.81.23,15.79,7.29,5.27,58.7,3.52,69.86,3.51l-.12,23.6-97.03,1.91-.88,19.23,98.8.51c-9.24,31.23-36.42,50.59-80.84,54.78l-10.35.46c-44.88.13-81.84-22.55-90.23-54.75-2.86-10.99-1.65-23.09-1.66-34.27L.29,0Z"/>
</svg>