<?xml version="1.0" encoding="UTF-8"?>
<svg id="Camada_1" data-name="Camada 1" xmlns="http://www.w3.org/2000/svg" xmlns:xlink="http://www.w3.org/1999/xlink" viewBox="0 0 1919 1024">
  <defs>
    <style>
      .cls-1, .cls-2, .cls-3, .cls-4, .cls-5, .cls-6, .cls-7, .cls-8, .cls-9, .cls-10, .cls-11, .cls-12, .cls-13, .cls-14, .cls-15, .cls-16 {
        stroke-width: 0px;
      }

      .cls-1, .cls-11 {
        clip-rule: evenodd;
      }

      .cls-1, .cls-17 {
        fill: #5e4123;
      }

      .cls-2 {
        fill: #c68725;
      }

      .cls-2, .cls-18, .cls-4, .cls-5, .cls-6, .cls-7, .cls-8, .cls-9, .cls-10, .cls-12, .cls-13, .cls-14, .cls-15, .cls-16, .cls-17 {
        fill-rule: evenodd;
      }

      .cls-19 {
        clip-path: url(#clippath-2);
      }

      .cls-3 {
        clip-path: url(#clippath);
        fill: none;
      }

      .cls-18, .cls-11 {
        fill: #8e8e8e;
      }

      .cls-4 {
        fill: #624a44;
      }

      .cls-5 {
        fill: #efefef;
      }

      .cls-20 {
        clip-path: url(#clippath-1);
      }

      .cls-6 {
        fill: #260800;
      }

      .cls-7 {
        fill: #d99f33;
      }

      .cls-8 {
        fill: #fff;
      }

      .cls-9 {
        fill: #b1771d;
      }

      .cls-10 {
        fill: #65605f;
      }

      .cls-12 {
        fill: #cd901d;
      }

      .cls-13 {
        fill: #e9b761;
      }

      .cls-14 {
        fill: #4c3115;
      }

      .cls-15 {
        fill: #e0aa4e;
      }

      .cls-16 {
        fill: #97620f;
      }
    </style>
    <clipPath id="clippath">
      <path class="cls-1" d="M791.93,0h-314.96c-.66,292.95-69.87,923.48-20.93,1024h374.01L791.93,0h0Z"/>
    </clipPath>
    <clipPath id="clippath-1">
      <rect class="cls-3" width="1919" height="1023.54"/>
    </clipPath>
    <clipPath id="clippath-2">
      <path class="cls-11" d="M1002.7,742.5c91.08,0,165.03,5.67,165.03,12.66s-73.95,12.66-165.03,12.66-165.04-5.67-165.04-12.66,73.95-12.66,165.04-12.66h0Z"/>
    </clipPath>
  </defs>
  <polygon class="cls-4" points="977.31 641.14 806.27 605.78 812.25 647.89 954.98 683.2 977.31 641.14 977.31 641.14"/>
  <g>
    <path class="cls-17" d="M791.93,0h-314.96c-.66,292.95-69.87,923.48-20.93,1024h374.01L791.93,0h0Z"/>
    <g class="cls-20">
      <polygon class="cls-15" points="830.06 315.29 439.44 194.5 439.44 473.41 830.06 594.19 830.06 315.29 830.06 315.29"/>
      <polygon class="cls-16" points="830.06 315.29 456.05 199.64 456.05 221.77 830.06 337.43 830.06 315.29 830.06 315.29"/>
      <polygon class="cls-9" points="830.06 340.1 456.05 224.45 456.05 246.58 830.06 362.24 830.06 340.1 830.06 340.1"/>
      <polygon class="cls-2" points="830.06 365.26 456.05 249.61 456.05 271.74 830.06 387.4 830.06 365.26 830.06 365.26"/>
      <polygon class="cls-12" points="830.06 391.82 456.05 276.17 456.05 298.3 830.06 413.96 830.06 391.82 830.06 391.82"/>
      <polygon class="cls-7" points="830.06 418.72 456.05 303.07 456.05 325.21 830.06 440.86 830.06 418.72 830.06 418.72"/>
      <polygon class="cls-13" points="829.58 541.3 424.11 415.92 424.11 461.22 829.58 586.6 829.58 541.3 829.58 541.3"/>
      <polygon class="cls-5" points="830.06 586.6 741.6 559.25 447.47 468.69 449.02 476.93 830.06 593.51 830.06 586.6 830.06 586.6"/>
      <polygon class="cls-14" points="867.27 605.12 418.83 466.45 418.83 486.39 867.27 625.05 867.27 605.12 867.27 605.12"/>
    </g>
  </g>
  <path class="cls-5" d="M824.01,592.39c0-.07,0-.14,0-.21.25-6.91-4.65-9.5-11.76-10.89v3.17l2.66,48.44,10.7,12.1s-1.51-50.01-1.59-52.61h0Z"/>
  <path class="cls-10" d="M1167.99,755.16c0,98.39-73.89,178.14-165.03,178.14s-165.03-79.76-165.03-178.14h330.07Z"/>
  <g>
    <path class="cls-18" d="M1002.7,742.5c91.08,0,165.03,5.67,165.03,12.66s-73.95,12.66-165.03,12.66-165.04-5.67-165.04-12.66,73.95-12.66,165.04-12.66h0Z"/>
    <g class="cls-19">
      <path class="cls-8" d="M1010.93,757.21c86.54,0,156.8,3.25,156.8,7.25s-70.26,7.25-156.8,7.25-156.8-3.25-156.8-7.25,70.26-7.25,156.8-7.25h0Z"/>
    </g>
  </g>
  <path class="cls-6" d="M1163.42,782.65c0-1.26-1.84-2.29-4.1-2.29-102.56,14.7-207.6,14.37-314.96-.12-2.27,0-4.11,1.02-4.11,2.28,0,1.26,1.84,2.29,4.1,2.29,102.93,14.81,207.91,15.29,314.96.12,2.27,0,4.11-1.02,4.11-2.28h0Z"/>
  <path class="cls-6" d="M1163.42,790c0-1.26-1.84-2.29-4.1-2.29-102.56,14.71-207.6,14.37-314.96-.12-2.27,0-4.11,1.02-4.11,2.28s1.84,2.29,4.1,2.29c102.93,14.81,207.91,15.29,314.96.12,2.27,0,4.11-1.02,4.11-2.28h0Z"/>
  <path class="cls-6" d="M849.51,785.95c0,3.11-4.74,5.63-10.56,5.63l-380.23-.07c-5.83,0-10.56-2.52-10.55-5.63,0-3.11,4.73-5.63,10.56-5.63l380.23.08c5.82,0,10.55,2.52,10.55,5.63h0Z"/>
  <polygon class="cls-6" points="956.45 647.89 812.24 618.27 814.83 656.14 954.63 683.2 956.45 647.89 956.45 647.89"/>
  <path class="cls-8" d="M960.56,677.24s-2.98,13.25,1.05,17.5c3.46,3.64,11.81,5.1,18.64,3.26,6.83-1.84,9.57-6.3,6.12-9.94-4.03-4.25-25.81-10.82-25.81-10.82h0Z"/>
  <path class="cls-8" d="M983.65,702.92s-6.49,15.65-2.75,21.09c3.08,4.48,12.39,6.78,20.79,5.14,8.39-1.64,12.71-6.61,9.63-11.09-3.74-5.43-27.67-15.14-27.67-15.14h0Z"/>
</svg>